#!OML:ASF F:\VICON\USERDATA\INSTALL\rory3\rory3.ASF
:FULLY-SPECIFIED
:DEGREES
395
root 3.10244 18.0196 10.8699 -2.36459 12.9408 3.62344
lowerback 14.0015 1.25494 2.4028
upperback 0.940268 2.11524 0.919009
thorax -6.80849 0.975731 -0.798661
lowerneck -22.9803 5.13509 -7.50218
upperneck 36.5171 10.4493 2.3338
head 16.4728 3.65356 4.43612
rclavicle 2.28602e-014 6.36111e-015
rhumerus -32.1394 -21.9813 -71.1411
rradius 26.8936
rwrist 6.27843
rhand -18.323 7.98971
rfingers 7.12502
rthumb 7.95856 -21.8405
lclavicle 2.28602e-014 6.36111e-015
lhumerus -29.928 16.1152 77.7652
lradius 38.898
lwrist -6.0862
lhand -20.3053 22.5498
lfingers 7.12502
lthumb 6.04505 52.4436
rfemur -2.1377 1.99768 15.0831
rtibia 25.7269
rfoot -15.2747 -4.90461
rtoes -5.82639
lfemur -17.7167 -1.68614 -9.10785
ltibia 33.7329
lfoot 2.84639 -0.4635
ltoes -2.16772
396
root 3.17256 18.0292 10.8861 -2.40265 12.7796 3.53181
lowerback 14.0309 1.29493 2.49548
upperback 0.942972 2.18234 0.901618
thorax -6.816 1.00519 -0.883065
lowerneck -23.027 5.15833 -7.44892
upperneck 36.3932 10.4805 2.26572
head 16.4281 3.66945 4.39831
rclavicle 1.04362e-014 4.77083e-015
rhumerus -32.1721 -21.776 -71.0898
rradius 26.8633
rwrist 5.88782
rhand -18.4586 8.03344
rfingers 7.12502
rthumb 7.82776 -21.8017
lclavicle 1.04362e-014 4.77083e-015
lhumerus -30.1486 16.4675 77.5226
lradius 38.6622
lwrist -5.86808
lhand -20.1335 24.335
lfingers 7.12502
lthumb 6.21094 54.2239
rfemur -1.78882 2.27561 14.992
rtibia 25.2493
rfoot -15.1197 -4.99529
rtoes -6.4171
lfemur -17.3325 -2.37325 -8.23334
ltibia 32.9126
lfoot 3.84677 0.217068
ltoes 0.201188
397
root 3.24601 18.0327 10.9042 -2.48961 12.581 3.38266
lowerback 14.0199 1.34538 2.64124
upperback 0.982912 2.27047 0.898995
thorax -6.75878 1.04494 -0.984
lowerneck -23.0479 5.17865 -7.43285
upperneck 36.2409 10.4815 2.28294
head 16.3539 3.68407 4.39387
rclavicle 4.46272e-014 -3.97569e-015
rhumerus -32.2503 -21.2225 -71.1846
rradius 26.9796
rwrist 5.29795
rhand -18.5704 8.18601
rfingers 7.12502
rthumb 7.71982 -21.6531
lclavicle 4.46272e-014 -3.97569e-015
lhumerus -30.4383 16.8554 77.2387
lradius 38.4679
lwrist -5.76496
lhand -19.8584 26.2224
lfingers 7.12502
lthumb 6.47656 56.1034
rfemur -1.43393 2.54788 14.9556
rtibia 24.8601
rfoot -15.0459 -5.10972
rtoes -7.12022
lfemur -16.8903 -3.15421 -7.28633
ltibia 32.0274
lfoot 4.69127 0.987185
ltoes 1.61433
398
root 3.32159 18.0308 10.9185 -2.48202 12.4278 3.34263
lowerback 14.0575 1.39595 2.71017
upperback 0.964483 2.34845 0.878257
thorax -6.7932 1.07973 -1.06127
lowerneck -23.1023 5.17752 -7.45961
upperneck 36.157 10.4833 2.29366
head 16.3212 3.68684 4.40032
rclavicle 1.72943e-014 0
rhumerus -32.2968 -20.7404 -71.2252
rradius 27.0858
rwrist 4.92614
rhand -18.5028 8.11223
rfingers 7.12502
rthumb 7.78504 -21.7245
lclavicle 1.72943e-014 0
lhumerus -30.711 17.2474 76.9797
lradius 38.1689
lwrist -5.69962
lhand -19.8322 26.8605
lfingers 7.12502
lthumb 6.50179 56.7407
rfemur -1.2139 2.75366 14.7692
rtibia 24.5545
rfoot -14.9855 -5.16952
rtoes -7.79485
lfemur -16.457 -3.95431 -6.48451
ltibia 31.0823
lfoot 5.48266 1.67362
ltoes 2.09278
399
root 3.39848 18.0256 10.9324 -2.45411 12.3383 3.37717
lowerback 14.123 1.42952 2.73969
upperback 0.919192 2.39512 0.79876
thorax -6.8717 1.09846 -1.17397
lowerneck -23.1434 5.18137 -7.3462
upperneck 36.1097 10.4672 2.22665
head 16.3218 3.68642 4.35001
rclavicle 7.55382e-015 3.26007e-014
rhumerus -32.3951 -20.6295 -71.1969
rradius 27.1604
rwrist 4.98016
rhand -18.3772 8.11561
rfingers 7.12502
rthumb 7.90629 -21.7165
lclavicle 7.55382e-015 3.26007e-014
lhumerus -30.9189 17.5261 76.7156
lradius 37.8496
lwrist -5.51429
lhand -19.9052 27.5219
lfingers 7.12502
lthumb 6.43131 57.4042
rfemur -1.0001 2.92683 14.4935
rtibia 24.2732
rfoot -14.9258 -5.24453
rtoes -8.45759
lfemur -16.0473 -4.75476 -5.80082
ltibia 30.1595
lfoot 6.49895 2.18467
ltoes 3.7009
400
root 3.4767 18.0237 10.9542 -2.44988 12.2717 3.41087
lowerback 14.0241 1.45441 2.71246
upperback 0.965471 2.41486 0.739985
thorax -6.76477 1.1104 -1.22052
lowerneck -23.1762 5.18585 -7.28111
upperneck 35.9172 10.4539 2.16085
head 16.2434 3.69023 4.29821
rclavicle -1.95803e-014 3.18055e-015
rhumerus -32.3986 -20.4924 -71.1923
rradius 27.2506
rwrist 5.18153
rhand -18.3215 8.25344
rfingers 7.12502
rthumb 7.96002 -21.5767
lclavicle -1.95803e-014 3.18055e-015
lhumerus -31.0904 17.8863 76.4308
lradius 37.594
lwrist -5.35494
lhand -19.4709 28.0641
lfingers 7.12502
lthumb 6.85063 57.9332
rfemur -0.717845 3.06199 14.2133
rtibia 23.9895
rfoot -14.8706 -5.29157
rtoes -9.30425
lfemur -15.5576 -5.51675 -5.15153
ltibia 29.2628
lfoot 7.42434 2.52619
ltoes 4.78609
401
root 3.55791 18.0236 10.9757 -2.50391 12.1966 3.37847
lowerback 13.929 1.46722 2.72539
upperback 1.08328 2.4281 0.745121
thorax -6.5852 1.12094 -1.21948
lowerneck -23.3249 5.19648 -7.29041
upperneck 35.7092 10.5213 2.02285
head 16.1824 3.70364 4.24807
rclavicle -4.69132e-014 8.74653e-015
rhumerus -32.193 -20.0776 -71.2776
rradius 27.2699
rwrist 5.28883
rhand -18.3024 8.17751
rfingers 7.12502
rthumb 7.97848 -21.6519
lclavicle -4.69132e-014 8.74653e-015
lhumerus -31.1492 18.485 76.1518
lradius 37.1719
lwrist -5.52096
lhand -19.0969 27.8102
lfingers 7.12502
lthumb 7.21163 57.6674
rfemur -0.395817 3.22457 14.0032
rtibia 23.7008
rfoot -14.811 -5.35675
rtoes -10.1108
lfemur -14.9613 -6.35547 -4.46089
ltibia 28.3628
lfoot 7.60565 3.15622
ltoes 3.56978
402
root 3.64143 18.0213 10.9922 -2.47203 12.1174 3.303
lowerback 13.7815 1.46726 2.76839
upperback 1.16185 2.43012 0.780718
thorax -6.41911 1.12501 -1.20004
lowerneck -23.4403 5.194 -7.3032
upperneck 35.5352 10.5746 1.87428
head 16.1332 3.70771 4.19221
rclavicle -4.68138e-014 -1.66979e-014
rhumerus -31.9608 -19.5891 -71.3629
rradius 27.2951
rwrist 5.31019
rhand -18.3725 8.16882
rfingers 7.12502
rthumb 7.91083 -21.6632
lclavicle -4.68138e-014 -1.66979e-014
lhumerus -31.2287 19.099 75.9158
lradius 36.7176
lwrist -5.69692
lhand -19.1312 27.4042
lfingers 7.12502
lthumb 7.17847 57.2624
rfemur -0.236825 3.468 13.831
rtibia 23.4533
rfoot -14.6723 -5.46812
rtoes -10.4222
lfemur -14.4806 -7.28273 -3.72511
ltibia 27.3802
lfoot 8.35486 3.35088
ltoes 5.67627
403
root 3.72634 18.0146 11.0091 -2.42111 12.0802 3.23634
lowerback 13.7568 1.44153 2.80472
upperback 1.12194 2.40122 0.774963
thorax -6.44726 1.10892 -1.2211
lowerneck -23.5045 5.2426 -7.22961
upperneck 35.4762 10.6119 1.88107
head 16.1194 3.73582 4.18962
rclavicle -2.41523e-014 -7.95139e-015
rhumerus -31.9641 -19.0318 -71.4844
rradius 27.4603
rwrist 5.26562
rhand -18.3438 8.35549
rfingers 7.12502
rthumb 7.93853 -21.4754
lclavicle -2.41523e-014 -7.95139e-015
lhumerus -31.465 19.5556 75.5574
lradius 36.2436
lwrist -5.66054
lhand -19.0975 26.5584
lfingers 7.12502
lthumb 7.21106 56.4155
rfemur -0.0911726 3.7108 13.6541
rtibia 23.2801
rfoot -14.5808 -5.58882
rtoes -10.1974
lfemur -14.0034 -8.22572 -2.99526
ltibia 26.2399
lfoot 9.03777 3.36388
ltoes 6.99668
